HIERARCHY
ROOT Hips
{
	OFFSET -0.001795 -0.223333 0.028219
	CHANNELS 6 Xposition Yposition Zposition Zrotation Yrotation Xrotation 
	JOINT LeftUpLeg
	{
		OFFSET 0.069520 -0.091406 -0.006815
		CHANNELS 3 Zrotation Yrotation Xrotation
		JOINT LeftLeg
		{
			OFFSET 0.034277 -0.375199 -0.004496
			CHANNELS 3 Zrotation Yrotation Xrotation
			JOINT LeftFoot
			{
				OFFSET -0.013596 -0.397961 -0.043693
				CHANNELS 3 Zrotation Yrotation Xrotation
				JOINT LeftToe
				{
					OFFSET 0.026358 -0.055791 0.119288
					CHANNELS 3 Zrotation Yrotation Xrotation
					End Site
					{
						OFFSET 0.000000 0.000000 0.000000
					}
				}
			}
		}
	}
	JOINT RightUpLeg
	{
		OFFSET -0.067670 -0.090522 -0.004320
		CHANNELS 3 Zrotation Yrotation Xrotation
		JOINT RightLeg
		{
			OFFSET -0.038290 -0.382569 -0.008850
			CHANNELS 3 Zrotation Yrotation Xrotation
			JOINT RightFoot
			{
				OFFSET 0.015774 -0.398415 -0.042312
				CHANNELS 3 Zrotation Yrotation Xrotation
				JOINT RightToe
				{
					OFFSET -0.025372 -0.048144 0.123348
					CHANNELS 3 Zrotation Yrotation Xrotation
					End Site
					{
						OFFSET 0.000000 0.000000 0.000000
					}
				}
			}
		}
	}
	JOINT Spine
	{
		OFFSET -0.002533 0.108963 -0.026696
		CHANNELS 3 Zrotation Yrotation Xrotation
		JOINT Spine1
		{
			OFFSET 0.005487 0.135180 0.001092
			CHANNELS 3 Zrotation Yrotation Xrotation
			JOINT Spine2
			{
				OFFSET 0.001457 0.052922 0.025425
				CHANNELS 3 Zrotation Yrotation Xrotation
				JOINT Neck
				{
					OFFSET -0.002778 0.213870 -0.042857
					CHANNELS 3 Zrotation Yrotation Xrotation
					JOINT Head
					{
						OFFSET 0.005152 0.064970 0.051349
						CHANNELS 3 Zrotation Yrotation Xrotation
						End Site
						{
							OFFSET 0.000000 0.000000 0.000000
						}
					}
				}
				JOINT LeftShoulder
				{
					OFFSET 0.078845 0.121749 -0.034090
					CHANNELS 3 Zrotation Yrotation Xrotation
					JOINT LeftArm
					{
						OFFSET 0.090977 0.030469 -0.008868
						CHANNELS 3 Zrotation Yrotation Xrotation
						JOINT LeftForeArm
						{
							OFFSET 0.259612 -0.012772 -0.027456
							CHANNELS 3 Zrotation Yrotation Xrotation
							JOINT LeftHand
							{
								OFFSET 0.249234 0.008986 -0.001171
								CHANNELS 3 Zrotation Yrotation Xrotation
								End Site
								{
									OFFSET 0.000000 0.000000 0.000000
								}
							}
						}
					}
				}
				JOINT RightShoulder
				{
					OFFSET -0.081759 0.118833 -0.038615
					CHANNELS 3 Zrotation Yrotation Xrotation
					JOINT RightArm
					{
						OFFSET -0.096012 0.032551 -0.009143
						CHANNELS 3 Zrotation Yrotation Xrotation
						JOINT RightForeArm
						{
							OFFSET -0.253742 -0.013329 -0.021401
							CHANNELS 3 Zrotation Yrotation Xrotation
							JOINT RightHand
							{
								OFFSET -0.255298 0.007772 -0.005559
								CHANNELS 3 Zrotation Yrotation Xrotation
								End Site
								{
									OFFSET 0.000000 0.000000 0.000000
								}
							}
						}
					}
				}
			}
		}
	}
}
MOTION
Frames: 10
Frame Time: 0.050000
0.000000 0.817812 0.000000 0.262833 -8.329637 -5.168029 17.649450 1.107963 -8.671716 -7.038296 2.819695 32.452159 6.439708 9.812181 -23.630545 0.000000 0.000000 0.000000 -14.593203 0.250441 -20.726977 11.714488 -2.335150 45.557929 -6.106323 -7.279366 -20.413563 0.000000 0.000000 0.000000 5.049509 -1.382445 20.733196 -5.855579 1.894069 -27.044919 -2.712769 7.147086 24.158982 6.890651 -1.322682 -30.815941 0.000000 0.000000 0.000000 -23.347832 -10.298293 3.867381 -39.416994 -9.747449 -3.272618 -9.684435 -34.931216 4.457173 0.000000 0.000000 0.000000 27.462563 1.866564 0.220723 49.283610 10.857429 -2.870956 14.486059 28.562610 4.880032 0.000000 0.000000 0.000000 
-0.000856 0.818235 -0.001039 0.386455 -9.533566 -5.513342 17.872713 1.248948 -8.863667 -7.414950 3.290925 33.887644 6.403364 10.410887 -22.071177 0.000000 0.000000 0.000000 -13.796051 0.446915 -21.955245 10.646695 -1.483761 47.529032 -5.806484 -6.668350 -18.911159 0.000000 0.000000 0.000000 5.413841 -1.426063 21.522537 -7.562199 2.279324 -27.285464 -1.766269 8.295021 23.599346 5.775152 -0.584307 -31.159775 0.000000 0.000000 0.000000 -24.103844 -11.314609 4.268869 -39.246933 -10.216860 -2.996803 -9.175210 -32.546235 3.931542 0.000000 0.000000 0.000000 26.351486 1.684739 0.305223 50.724727 10.581074 -2.990690 14.731484 27.185222 4.708910 0.000000 0.000000 0.000000 
-0.001340 0.820533 -0.002038 0.682768 -7.503827 -5.513818 17.212896 1.007790 -8.547085 -6.924596 2.616167 31.901045 6.232588 9.034135 -22.527997 0.000000 0.000000 0.000000 -14.172130 0.237021 -20.470909 10.433760 -1.837447 45.860916 -6.097194 -7.933666 -19.654624 0.000000 0.000000 0.000000 5.472426 -1.522196 21.488222 -6.839440 2.132242 -27.168390 -3.240877 7.146820 23.958614 5.629883 -0.224456 -34.314876 0.000000 0.000000 0.000000 -24.760911 -11.083067 4.153831 -38.734698 -11.035855 -2.793964 -9.382663 -31.422835 3.846871 0.000000 0.000000 0.000000 28.919746 1.774000 0.345440 48.434655 11.274020 -2.814219 14.246222 26.845539 4.506409 0.000000 0.000000 0.000000 
-0.001695 0.824488 -0.003167 0.836130 -7.379023 -5.543974 16.871081 0.929315 -8.072296 -6.754544 2.433456 30.713188 6.109377 8.921597 -21.415355 0.000000 0.000000 0.000000 -14.701844 0.150627 -20.268689 11.015126 -2.174510 45.200107 -5.820915 -7.635729 -18.228978 0.000000 0.000000 0.000000 5.900940 -1.638003 22.102508 -7.890914 2.372227 -27.507157 -3.424846 6.959131 23.143367 4.951818 0.110155 -34.149889 0.000000 0.000000 0.000000 -24.316839 -10.814373 3.948349 -38.472523 -11.253808 -2.643548 -9.098593 -31.174470 3.719771 0.000000 0.000000 0.000000 28.599357 1.502063 0.134421 48.462347 10.883105 -2.871061 15.995203 27.073877 4.957820 0.000000 0.000000 0.000000 
-0.002053 0.828577 -0.003945 0.888901 -6.457748 -5.261037 16.596324 0.840400 -8.232097 -6.469637 2.134350 29.643711 5.886730 8.205142 -20.293946 0.000000 0.000000 0.000000 -15.150392 0.042492 -19.104501 11.538204 -2.608493 42.932598 -5.860335 -7.980266 -18.224806 0.000000 0.000000 0.000000 5.849906 -1.654403 21.737464 -8.080844 2.442190 -26.816837 -3.382774 6.837658 22.595234 4.707366 0.343985 -34.586858 0.000000 0.000000 0.000000 -24.788469 -10.683930 3.680232 -37.915893 -11.215622 -2.508270 -11.587999 -31.117958 4.362885 0.000000 0.000000 0.000000 29.180618 0.944576 -0.108269 47.911803 10.816522 -2.887306 15.926640 27.177721 4.982587 0.000000 0.000000 0.000000 
-0.002234 0.830478 -0.004267 0.790045 -5.862788 -4.906500 16.928951 0.822785 -8.223757 -6.889486 2.162117 28.503551 5.756100 7.653238 -20.002491 0.000000 0.000000 0.000000 -15.267609 -0.001036 -18.759959 11.874285 -2.880284 41.876594 -5.881318 -8.338745 -18.046447 0.000000 0.000000 0.000000 5.686413 -1.669242 21.854900 -8.070438 2.401974 -27.856179 -2.998762 6.988718 22.936058 4.696277 0.372488 -34.110685 0.000000 0.000000 0.000000 -24.984789 -10.499735 3.418965 -38.491073 -10.735522 -2.654041 -12.181157 -30.228262 4.379208 0.000000 0.000000 0.000000 28.748957 0.593457 -0.131072 47.821385 10.351052 -3.138063 16.771312 27.070019 5.192839 0.000000 0.000000 0.000000 
-0.002308 0.832747 -0.004371 0.690273 -5.164579 -4.664349 16.662502 0.775381 -8.757195 -6.281380 1.845658 28.490646 5.602292 7.173893 -19.247808 0.000000 0.000000 0.000000 -15.174585 -0.026002 -18.256437 11.867784 -2.990645 40.853774 -5.917527 -8.802870 -17.810080 0.000000 0.000000 0.000000 5.545763 -1.662706 21.590869 -8.129905 2.420245 -27.861086 -2.774467 6.704581 22.954350 4.612426 0.424049 -34.085276 0.000000 0.000000 0.000000 -25.258710 -9.945726 3.038962 -38.612888 -10.509598 -2.708931 -12.850508 -29.615693 4.462190 0.000000 0.000000 0.000000 28.678480 0.731175 0.005492 47.414790 10.334257 -3.143165 16.292686 27.382652 5.145489 0.000000 0.000000 0.000000 
-0.002249 0.833570 -0.004398 0.521452 -4.606327 -4.363355 16.659825 0.765013 -9.371391 -5.970115 1.670701 28.659429 5.510804 6.789017 -18.971066 0.000000 0.000000 0.000000 -14.992319 -0.032919 -18.136147 11.850965 -3.083724 40.353821 -5.981312 -9.281668 -17.731576 0.000000 0.000000 0.000000 5.473977 -1.685560 21.631165 -7.990788 2.383274 -28.014686 -2.588395 6.797299 22.860196 5.415509 0.032468 -33.434668 0.000000 0.000000 0.000000 -25.630308 -9.981915 2.891111 -38.551179 -9.657505 -2.887439 -13.177072 -29.346783 4.484233 0.000000 0.000000 0.000000 28.521926 0.570797 0.055947 47.071793 10.268384 -3.182543 15.961746 27.223866 5.044214 0.000000 0.000000 0.000000 
-0.002032 0.834774 -0.004311 0.339100 -4.249757 -4.144936 16.864718 0.773723 -9.687176 -6.013750 1.643809 28.567935 5.407123 6.468862 -18.599961 0.000000 0.000000 0.000000 -14.934974 -0.042068 -18.001772 12.051720 -3.233897 39.843683 -5.969139 -9.520214 -17.375150 0.000000 0.000000 0.000000 5.614989 -1.717101 21.404643 -7.953227 2.379055 -27.892129 -2.493915 6.850516 22.770332 6.128858 -0.293987 -33.310536 0.000000 0.000000 0.000000 -25.573959 -10.117021 2.872420 -38.443614 -9.153322 -2.985072 -13.811054 -28.402649 4.474355 0.000000 0.000000 0.000000 28.738992 0.428991 0.055383 46.497295 10.537365 -3.093855 15.420506 27.002438 4.872258 0.000000 0.000000 0.000000 
-0.001731 0.836033 -0.004111 0.166315 -4.048495 -3.982667 17.175362 0.791603 -9.777707 -6.270821 1.707777 28.286590 5.313030 6.228106 -18.251790 0.000000 0.000000 0.000000 -14.793149 -0.036226 -18.139738 12.095320 -3.299864 39.822221 -5.904674 -9.670792 -16.660413 0.000000 0.000000 0.000000 5.787168 -1.758721 21.354261 -8.091589 2.402869 -28.022200 -2.335328 6.794028 22.843413 6.829918 -0.666937 -33.069588 0.000000 0.000000 0.000000 -25.675987 -10.434202 3.043743 -38.138709 -8.308012 -3.199892 -14.577127 -28.472519 4.673710 0.000000 0.000000 0.000000 28.702153 0.440890 0.085371 46.091687 10.438104 -3.125327 15.216203 27.173347 4.853183 0.000000 0.000000 0.000000 
